<?xml version="1.0" standalone="no"?>
<!DOCTYPE svg PUBLIC "-//W3C//DTD SVG 20010904//EN"
 "http://www.w3.org/TR/2001/REC-SVG-20010904/DTD/svg10.dtd">
<svg version="1.0" xmlns="http://www.w3.org/2000/svg"
 width="558.000000pt" height="501.000000pt" viewBox="0 0 558.000000 501.000000"
 preserveAspectRatio="xMidYMid meet">
<metadata>
Created by potrace 1.16, written by Peter Selinger 2001-2019
</metadata>
<g transform="translate(0.000000,501.000000) scale(0.100000,-0.100000)"
fill="#000000" stroke="none">
<path d="M1059 4272 c-15 -10 -41 -32 -58 -50 -17 -19 -36 -32 -43 -30 -7 3
-18 -5 -24 -16 -6 -13 -18 -20 -30 -18 -10 2 -29 4 -41 5 -11 1 -37 17 -57 34
-21 20 -38 28 -42 22 -3 -6 -12 -8 -19 -5 -14 5 -55 -28 -55 -45 0 -6 4 -8 9
-5 4 3 6 -7 2 -22 -5 -25 -6 -25 -9 -4 -2 12 -7 20 -12 17 -5 -3 -16 5 -24 17
-9 12 -16 18 -16 12 0 -5 5 -15 12 -22 9 -9 5 -17 -15 -36 -16 -15 -28 -20
-31 -13 -2 7 -5 5 -5 -3 -1 -9 13 -21 29 -27 17 -6 28 -8 25 -3 -3 5 -1 11 5
15 6 3 13 -2 17 -12 4 -10 20 -31 36 -47 26 -26 28 -34 23 -70 -7 -44 -37 -83
-55 -72 -5 4 -13 23 -16 44 -4 20 -12 51 -18 67 -7 17 -11 33 -9 38 1 4 -4 6
-10 5 -7 -2 -12 2 -11 9 2 8 -5 8 -27 0 -20 -8 -25 -14 -17 -19 9 -6 8 -8 -3
-8 -13 0 -13 -1 0 -10 13 -9 13 -10 0 -11 -10 0 -8 -3 5 -9 28 -12 43 -12 25
1 -13 9 -13 10 0 6 8 -2 14 -10 12 -16 -1 -6 3 -11 10 -11 6 0 9 -2 6 -5 -10
-10 -108 28 -108 42 0 7 9 22 20 33 12 12 19 24 16 28 -3 5 0 14 5 22 8 13 10
13 20 0 8 -12 9 -10 4 7 -7 24 21 82 40 84 5 1 -6 5 -25 10 -36 8 -80 2 -63
-10 12 -8 1 -116 -12 -116 -5 0 -11 12 -13 28 -4 35 -18 35 -27 0 l-7 -28 -19
27 c-17 23 -25 26 -52 21 -35 -7 -69 -32 -45 -34 7 0 4 -4 -7 -9 -17 -7 -15
-9 11 -9 17 -1 37 -8 44 -16 11 -13 10 -18 -6 -30 -10 -8 -22 -15 -25 -15 -4
0 -9 -8 -13 -17 -3 -10 -11 -25 -17 -34 -8 -10 -9 -24 -4 -35 14 -32 16 -64 5
-64 -5 0 -10 -9 -10 -19 0 -13 -9 -21 -30 -26 -16 -4 -30 -13 -30 -21 0 -17
-21 -19 -37 -3 -6 6 -28 9 -49 7 -36 -3 -38 -5 -51 -53 -8 -31 -13 -114 -13
-217 l0 -168 48 -1 c26 -1 76 -1 112 -1 l65 0 -58 -7 c-59 -6 -81 -27 -24 -24
25 2 28 1 12 -6 -42 -17 62 -22 314 -16 141 4 883 8 1649 9 767 0 1379 4 1360
8 -106 20 -181 32 -253 38 -55 5 3 8 183 9 l263 1 -5 173 c-2 94 -5 185 -5
201 -1 53 -10 66 -45 66 l-33 0 -46 -157 c-25 -87 -48 -167 -49 -178 -3 -18
-10 -20 -68 -17 -36 2 -70 8 -77 15 -11 11 9 105 70 322 73 258 98 357 95 361
-5 4 -184 -638 -190 -681 -3 -16 -10 -19 -33 -17 -57 7 -59 16 -25 153 71 285
94 367 103 362 6 -3 7 -1 4 5 -8 12 13 113 22 108 3 -2 7 11 8 29 2 43 -23 54
-51 24 -12 -12 -15 -19 -8 -15 6 4 12 2 12 -3 0 -6 -7 -11 -15 -11 -18 0 -20
-26 -2 -34 6 -4 3 -5 -8 -3 -18 3 -20 -1 -18 -35 1 -21 -3 -38 -9 -38 -5 0 -8
-6 -5 -14 3 -7 0 -19 -6 -25 -9 -9 -9 -14 2 -20 9 -6 10 -11 2 -15 -6 -4 -11
-4 -12 1 -1 16 -39 -113 -45 -155 -3 -23 -10 -45 -15 -48 -5 -3 -9 -24 -9 -46
0 -23 -3 -38 -7 -34 -12 12 -60 -137 -54 -171 1 -7 -5 -13 -14 -13 -19 0 -19
16 0 70 8 23 15 48 14 54 -1 6 -11 -20 -24 -59 -25 -76 -41 -89 -74 -56 -16
16 -19 25 -11 43 5 13 16 48 24 78 12 43 113 383 156 522 4 14 6 29 2 32 -15
16 -32 2 -43 -36 -18 -61 -18 -68 -8 -68 5 0 9 -4 9 -10 0 -5 -7 -10 -15 -10
-9 0 -12 -6 -9 -15 4 -8 1 -15 -6 -15 -7 0 -10 -7 -6 -15 3 -8 1 -15 -5 -15
-5 0 -9 -6 -8 -12 4 -20 -30 -160 -51 -213 -5 -11 -11 -31 -13 -45 -3 -14 -14
-56 -25 -95 -12 -38 -23 -82 -26 -96 -6 -30 -32 -45 -51 -29 -6 5 -15 7 -18 3
-11 -10 -9 -1 28 126 19 66 35 124 35 129 0 19 -190 23 -778 16 l-607 -7 -1
-42 c-2 -50 -27 -97 -63 -117 -19 -11 -42 -13 -91 -8 -36 4 -51 8 -33 8 49 3
48 18 -2 31 -84 21 -145 102 -131 172 5 28 5 29 -13 12 -36 -35 -43 -60 -26
-94 15 -28 15 -34 1 -62 -9 -18 -16 -26 -16 -19 0 7 -4 10 -10 7 -5 -3 -10 -1
-10 4 0 6 3 11 8 11 4 0 13 4 21 9 11 7 11 12 0 32 -7 13 -14 29 -14 34 -1 6
-6 9 -13 8 -6 -2 -9 4 -6 11 4 11 0 13 -15 9 -11 -3 -20 -8 -19 -12 2 -21 -5
-29 -23 -26 -12 3 -19 2 -16 -2 10 -9 -25 -32 -50 -33 -14 0 -23 -6 -23 -15 0
-13 7 -12 42 6 25 13 38 16 31 8 -9 -11 -6 -14 17 -15 22 -1 28 3 25 17 -2 11
0 19 6 19 5 0 9 -6 10 -12 0 -7 3 -22 5 -33 2 -11 7 -41 10 -67 l6 -48 -36 0
c-41 0 -103 47 -108 83 -2 12 -7 -11 -11 -50 -10 -90 -32 -113 -108 -113 -37
0 -49 -4 -49 -15 0 -17 -35 -55 -50 -55 -7 0 -8 13 -4 35 l6 35 -48 2 -49 1
44 6 c38 5 46 10 52 33 5 19 3 28 -7 32 -8 3 -13 2 -13 -2 4 -22 -4 -31 -33
-41 -22 -8 -34 -8 -38 -1 -9 15 -21 353 -14 389 4 21 11 28 21 24 8 -3 21 4
29 16 9 12 19 19 24 16 4 -2 20 5 34 16 26 20 28 21 47 3 19 -17 19 -17 16 4
-2 12 -11 30 -20 40 -22 24 -10 102 14 102 13 0 10 -23 -6 -44 -17 -23 -20
-50 -5 -41 6 4 8 10 6 14 -9 14 12 34 29 28 9 -4 13 -12 9 -18 -5 -8 -3 -9 7
-3 8 5 22 7 32 6 9 -2 17 2 17 7 0 6 -5 11 -12 11 -16 0 -1 13 18 16 14 2 15
-5 10 -39 -4 -28 -3 -37 3 -28 8 12 12 12 25 2 8 -7 12 -19 9 -27 -6 -17 -33
-19 -33 -2 0 6 -3 8 -6 5 -10 -10 44 -87 59 -84 6 1 16 8 22 15 7 9 10 5 12
-14 1 -20 -1 -24 -9 -13 -8 12 -9 12 -6 0 6 -22 28 -25 28 -5 0 16 1 16 15 -2
12 -15 16 -16 24 -5 5 8 14 10 22 5 9 -5 7 3 -5 20 -15 24 -16 28 -3 23 11 -4
14 -2 11 8 -8 19 -31 8 -38 -18 -6 -22 -7 -22 -21 -2 -19 24 -14 41 11 37 16
-2 16 -1 4 7 -10 7 -20 5 -32 -6 -19 -17 -26 -5 -7 14 15 15 -30 115 -49 108
-11 -4 -13 0 -9 15 5 18 3 19 -9 9 -12 -10 -14 -10 -12 0 4 16 -38 25 -47 11
-10 -17 -25 -1 -25 26 0 14 3 23 8 21 10 -7 14 76 3 92 -13 20 -41 6 -41 -20
0 -12 -3 -19 -6 -16 -7 7 -44 -30 -44 -43 0 -3 7 -15 16 -26 15 -18 15 -18 10
4 -6 32 2 52 23 52 9 0 22 5 29 12 9 9 12 7 12 -10 0 -12 -4 -22 -9 -22 -5 0
-14 -13 -21 -30 -19 -47 -37 -56 -62 -34 -21 19 -21 19 -15 -11 4 -16 9 -40
13 -52 5 -17 2 -23 -10 -23 -9 0 -15 -5 -13 -12 1 -7 -8 -13 -20 -14 -16 -1
-23 4 -23 17 0 24 11 50 19 45 8 -5 5 99 -3 113 -4 5 -2 12 4 16 5 3 10 0 11
-7 0 -7 4 -3 9 10 5 12 24 30 41 40 46 25 87 61 69 61 -8 0 -27 -8 -41 -17z
m-485 -384 c-5 -7 -2 -9 9 -5 8 3 21 0 27 -8 6 -8 17 -12 23 -10 16 5 57 -60
57 -90 0 -17 -8 -26 -32 -34 -29 -10 -34 -9 -51 11 -18 22 -18 22 -8 1 10 -19
8 -22 -8 -20 -11 0 -17 5 -15 9 3 4 -2 8 -12 8 -14 0 -15 2 -3 17 13 15 12 15
-8 5 -12 -7 -26 -20 -32 -30 -5 -9 -13 -14 -16 -10 -4 4 3 24 15 45 18 31 19
34 2 14 -18 -22 -20 -23 -29 -6 -6 10 -8 27 -5 37 4 17 12 19 53 16 48 -3 48
-3 33 20 -13 20 -12 42 2 42 3 0 2 -5 -2 -12z"/>
<path d="M4361 2530 c-1 -291 -1 -300 18 -300 12 0 21 -8 24 -22 3 -17 5 -14
6 10 0 17 5 32 10 32 5 0 7 9 4 20 -3 12 0 20 6 20 8 0 10 12 6 38 -4 27 -3
32 4 17 9 -20 10 -20 10 0 1 10 18 37 39 60 25 27 27 31 6 12 -16 -15 -32 -27
-35 -27 -5 0 43 145 70 215 8 20 9 26 1 19 -6 -6 -26 -53 -46 -105 -19 -52
-32 -78 -28 -59 4 19 7 45 6 57 0 13 5 20 10 17 6 -4 7 2 3 16 -4 14 -3 20 3
16 5 -3 13 6 16 22 4 15 9 36 12 47 2 11 -4 4 -15 -15 l-20 -35 -2 60 c-2 54
-3 51 -10 -33 -5 -51 -13 -117 -19 -145 -6 -29 -15 -81 -20 -117 -15 -97 -19
-110 -36 -110 -13 0 -15 23 -13 183 1 100 6 195 11 211 4 16 4 34 -1 40 -4 6
-9 42 -10 81 -4 152 -8 60 -10 -225z"/>
<path d="M2356 2804 c-3 -9 -6 -30 -6 -48 0 -26 -8 -38 -50 -69 -37 -28 -52
-47 -60 -77 l-11 -40 -139 0 c-87 0 -140 4 -140 10 0 6 -15 10 -34 10 -27 0
-35 -5 -40 -23 -3 -13 -30 -40 -61 -61 -30 -21 -55 -42 -55 -47 0 -5 -6 -9
-12 -9 -7 -1 -25 -20 -40 -44 -28 -44 -36 -76 -18 -76 5 0 17 -16 26 -36 9
-20 23 -38 31 -41 7 -3 13 -14 13 -25 0 -14 5 -18 15 -14 9 3 18 -1 21 -8 3
-8 18 -19 34 -26 15 -6 30 -20 33 -31 5 -19 27 -19 921 -19 l916 0 0 194 c0
106 -3 208 -6 225 -6 28 -10 31 -45 31 -22 0 -39 -3 -39 -7 0 -13 -141 -15
-577 -8 l-423 7 0 24 c0 22 -63 104 -80 104 -4 0 -18 -16 -31 -35 -13 -19 -30
-35 -36 -35 -20 0 -15 39 9 73 22 31 31 77 14 74 -5 -1 -14 7 -20 18 -9 18
-15 19 -39 11 -20 -7 -34 -7 -47 1 -15 10 -19 9 -24 -3z m404 -474 c0 -5 9
-10 21 -10 18 0 20 -5 17 -51 l-3 -50 -325 1 c-275 2 -356 4 -412 9 -5 1 -8
21 -8 46 l0 45 313 -1 c182 -1 327 3 347 9 47 13 50 14 50 2z"/>
<path d="M1540 1645 c-1 -27 -2 -28 -11 -10 -7 15 -8 6 -6 -32 l4 -52 -28 20
c-16 11 -33 28 -39 37 -5 9 -10 13 -10 8 0 -5 -7 -3 -16 5 -8 7 1 -15 21 -50
38 -64 42 -87 10 -51 -19 20 -41 28 -30 10 9 -15 -2 -12 -33 7 -24 15 -24 13
8 -22 32 -35 32 -37 8 -22 -47 29 -42 19 11 -23 66 -53 65 -60 -1 -13 -58 41
-52 27 21 -49 l45 -48 164 0 c134 0 162 2 154 13 -9 10 -3 13 26 13 46 1 132
32 92 34 -24 1 -24 2 8 17 35 18 42 33 15 33 -9 0 7 16 37 35 69 43 58 45 -21
3 -60 -31 -61 -31 -38 -45 15 -9 17 -12 6 -9 -10 3 -35 6 -55 7 -20 0 -32 3
-25 5 6 3 24 21 39 41 15 20 22 33 14 28 -10 -6 -12 -4 -7 9 4 10 3 15 -3 11
-6 -3 -10 -10 -10 -15 0 -4 -16 -24 -35 -43 l-35 -35 0 39 c0 21 -4 39 -9 39
-6 0 -12 19 -14 43 -2 23 -4 7 -4 -36 0 -42 -3 -80 -6 -84 -4 -3 -7 7 -7 23 0
16 -7 49 -14 74 -12 35 -15 40 -17 20 -2 -31 -2 -31 6 -55 4 -14 2 -13 -8 4
-8 14 -13 30 -11 36 3 6 0 22 -6 36 -10 23 -10 23 -5 -4 4 -19 2 -26 -5 -22
-7 4 -7 -2 0 -20 6 -15 8 -31 4 -36 -3 -5 -1 -9 4 -9 11 0 38 -78 30 -86 -11
-10 -67 152 -61 174 10 38 -15 24 -27 -15 -7 -21 -17 -42 -22 -48 -6 -6 -7 -5
-4 5 2 8 7 29 10 45 l6 30 -15 -25 c-17 -29 -19 -19 -6 28 12 39 -5 34 -21 -6
l-11 -27 -7 25 c-6 19 -9 13 -11 -30 -1 -32 -4 -43 -6 -27 -2 15 -9 25 -14 22
-5 -4 -8 4 -8 17 0 13 -4 37 -9 53 l-10 30 -2 -30z"/>
<path d="M4351 1533 c-12 -60 -29 -139 -38 -176 l-17 -68 -10 33 c-10 29 -16
33 -48 36 -22 2 -38 -1 -38 -7 0 -7 -39 -11 -110 -11 l-110 0 2 -235 c3 -265
11 -244 -77 -226 l-40 9 49 1 c27 0 46 4 42 9 -4 4 -11 7 -14 8 -76 7 -139 19
-149 30 -21 20 2 27 68 20 l59 -7 -1 173 c-1 95 -4 163 -6 151 -3 -16 -9 -20
-21 -16 -9 4 -20 11 -23 16 -4 5 -18 2 -33 -8 -15 -10 -28 -16 -30 -14 -9 11
-26 76 -27 103 l-1 31 -8 -30 c-6 -23 -8 -25 -10 -10 -2 11 -4 25 -5 30 -2 6
-3 15 -4 21 0 7 -8 15 -17 18 -13 5 -14 3 -7 -6 23 -29 24 -128 1 -128 -6 0
-7 11 -4 26 5 17 3 23 -4 19 -5 -3 -10 -16 -10 -28 0 -16 -3 -18 -12 -9 -7 7
-20 12 -29 12 -15 0 -17 14 -18 112 -1 61 -3 114 -6 116 -3 3 -5 -40 -5 -96 0
-60 -4 -102 -10 -102 -6 0 -9 49 -7 125 1 69 -1 125 -5 125 -5 0 -8 -15 -8
-33 0 -18 -5 -38 -12 -45 -9 -9 -9 -15 0 -24 7 -7 12 -39 12 -75 0 -49 -3 -63
-15 -63 -13 0 -15 -29 -15 -199 l0 -200 -37 -4 -38 -4 36 -1 c32 -2 37 -6 41
-31 l4 -28 -95 -7 c-53 -3 -145 -6 -206 -6 l-110 0 2 250 c1 138 -2 260 -7
273 -8 20 -9 19 -9 -10 l-1 -32 -629 -3 c-346 -2 -632 -6 -635 -9 -3 -3 -6
-110 -6 -237 l-1 -232 -132 0 c-120 0 -130 1 -115 16 8 9 40 19 69 23 48 6 42
8 -61 13 -63 3 -123 9 -132 12 -21 10 -31 94 -26 229 2 66 -1 97 -8 97 -11 0
-24 -176 -24 -327 l0 -73 -97 1 c-67 1 -88 4 -68 9 24 6 18 8 -31 9 -77 1
-125 11 -118 22 3 5 -8 14 -25 20 -43 15 -67 90 -78 241 -5 71 -4 76 13 73 11
-2 45 -6 77 -9 50 -4 57 -2 57 14 0 10 6 20 14 23 10 4 12 0 9 -14 -4 -14 0
-19 16 -19 25 0 27 13 4 40 -13 14 -20 17 -30 8 -7 -6 -16 -8 -19 -5 -11 10 7
27 29 28 21 0 21 1 2 9 -11 5 -14 9 -7 9 7 1 10 6 7 12 -4 6 -9 8 -12 5 -3 -3
-14 -1 -25 5 -24 13 -98 19 -95 9 1 -5 -2 -8 -7 -8 -5 0 -12 -5 -15 -10 -3 -5
-17 -12 -31 -16 l-25 -7 25 15 c22 13 22 15 6 16 -20 0 -20 0 0 15 17 14 16
14 -13 0 -23 -10 -63 -15 -137 -15 l-105 0 3 -47 c2 -27 32 -120 65 -208 34
-88 61 -165 61 -172 0 -16 -35 -35 -58 -31 -18 3 -32 17 -32 33 0 6 5 3 11 -5
14 -19 11 -11 -46 140 -24 63 -58 158 -75 210 -32 95 -56 148 -47 103 3 -13 0
-23 -5 -23 -6 0 -8 12 -4 30 5 28 -4 63 -46 173 -6 15 -16 27 -23 27 -19 0
-38 -27 -28 -42 22 -36 34 -100 54 -288 11 -113 27 -236 34 -274 8 -38 12 -73
9 -77 -8 -14 -71 -11 -77 4 -2 6 -17 154 -31 327 -28 326 -39 394 -59 387 -16
-5 -12 -128 13 -367 5 -47 12 -130 15 -185 4 -55 8 -115 10 -132 2 -18 0 -33
-5 -33 -4 0 -11 39 -15 87 -4 49 -13 117 -21 153 l-13 65 4 -55 c3 -30 8 -99
11 -152 l7 -97 -28 -7 c-39 -10 -51 11 -59 99 -4 39 -12 116 -18 170 l-11 97
-37 0 -37 0 -12 -90 c-9 -60 -10 -137 -6 -235 l8 -145 1011 5 c1890 10 3857
26 3872 32 11 4 14 34 14 157 0 83 -5 158 -10 166 -6 10 -10 11 -10 3 0 -7 -9
-13 -20 -13 -24 0 -36 27 -41 90 -4 40 -2 45 21 51 21 6 19 7 -14 8 -23 1 -65
15 -108 38 l-69 36 -195 1 c-106 1 -194 -2 -194 -6 0 -5 -4 -8 -10 -8 -5 0
-10 7 -10 16 0 9 -6 14 -12 12 -14 -5 -26 -73 -27 -161 -1 -41 -4 -56 -12 -51
-14 8 -3 -100 12 -128 12 -23 37 -23 61 -1 17 15 18 15 18 0 0 -10 -4 -17 -10
-17 -5 0 -10 -5 -10 -11 0 -5 5 -7 10 -4 6 3 10 2 10 -3 0 -16 -56 -20 -215
-17 -177 3 -189 6 -181 48 3 16 7 77 8 136 1 58 3 88 5 67 3 -22 11 -45 20
-51 11 -8 14 -23 11 -48 -2 -19 0 -33 4 -31 4 3 8 -2 8 -10 0 -9 -8 -16 -17
-16 -15 0 -15 -2 -4 -9 10 -7 19 -4 28 7 7 9 13 12 13 6 0 -18 -28 -37 -41
-28 -8 4 -9 3 -5 -4 4 -7 2 -12 -5 -12 -7 0 -10 -2 -7 -5 3 -3 17 -1 32 4 21
9 26 8 26 -6 0 -9 3 -13 8 -9 4 4 7 12 7 17 0 5 5 8 10 7 6 -2 9 -11 8 -20 -4
-26 4 -22 21 10 8 15 15 21 16 14 0 -10 17 -13 63 -11 35 1 68 -1 74 -4 11 -7
10 6 -12 173 -9 63 -19 149 -24 190 -8 70 -9 72 -10 23 0 -29 -5 -53 -10 -53
-17 0 -23 42 -15 109 7 60 8 63 15 31 3 -19 7 -27 8 -16 1 26 -21 149 -29 159
-3 4 -17 -41 -29 -100z m-41 -580 c58 -2 137 -4 177 -6 39 -1 69 1 67 5 -3 5
0 8 6 8 7 0 9 -7 6 -16 -3 -9 -6 -20 -6 -25 0 -5 -11 -9 -25 -9 -14 0 -25 5
-25 11 0 6 9 8 23 4 20 -5 20 -5 3 6 -11 7 -26 8 -40 2 -23 -9 -176 -9 -241 0
-22 3 -29 4 -15 1 14 -3 34 -9 45 -14 11 -6 64 -11 118 -12 94 -3 97 -4 84
-22 -9 -12 -19 -16 -27 -11 -11 7 -9 10 6 16 10 4 -46 8 -125 8 -79 0 -147 4
-151 8 -4 4 -10 21 -14 37 -6 25 -5 28 11 21 10 -5 65 -10 123 -12z"/>
</g>
</svg>
